<svg width="125" height="114" viewBox="0 0 125 114" fill="none" xmlns="http://www.w3.org/2000/svg">
<path d="M70 7H88V110H70V7Z" fill="url(#paint0_linear_49_3)"/>
<path d="M87.5 7.5V109.5H70.5V7.5H87.5Z" stroke="white" stroke-opacity="0.01"/>
<line x1="32" y1="18.5" x2="17" y2="18.5" stroke="#1D4ED8"/>
<line x1="17.5" y1="19" x2="17.5" y2="110" stroke="#1D4ED8"/>
<path d="M68.3536 110.354C68.5488 110.158 68.5488 109.842 68.3536 109.646L65.1716 106.464C64.9763 106.269 64.6597 106.269 64.4645 106.464C64.2692 106.66 64.2692 106.976 64.4645 107.172L67.2929 110L64.4645 112.828C64.2692 113.024 64.2692 113.34 64.4645 113.536C64.6597 113.731 64.9763 113.731 65.1716 113.536L68.3536 110.354ZM17 110V110.5H68V110V109.5H17V110Z" fill="#1D4ED8"/>
<path d="M33.256 10.216C32.6853 10.216 32.248 10.3947 31.944 10.752C31.6453 11.104 31.496 11.5947 31.496 12.224C31.496 12.5227 31.5307 12.7973 31.6 13.048C31.6747 13.2933 31.7813 13.504 31.92 13.68C32.064 13.856 32.24 13.9947 32.448 14.096C32.6613 14.192 32.9093 14.24 33.192 14.24C33.368 14.24 33.52 14.2347 33.648 14.224C33.776 14.208 33.8773 14.1893 33.952 14.168V12.176H34.96V14.84C34.8213 14.8933 34.5867 14.952 34.256 15.016C33.9253 15.08 33.544 15.112 33.112 15.112C32.712 15.112 32.3467 15.048 32.016 14.92C31.6853 14.792 31.4027 14.6053 31.168 14.36C30.9387 14.1147 30.76 13.8133 30.632 13.456C30.504 13.0987 30.44 12.688 30.44 12.224C30.44 11.76 30.5093 11.3493 30.648 10.992C30.792 10.6347 30.9867 10.3333 31.232 10.088C31.4773 9.83733 31.7653 9.648 32.096 9.52C32.4267 9.392 32.7787 9.328 33.152 9.328C33.408 9.328 33.6347 9.34667 33.832 9.384C34.0347 9.416 34.208 9.45333 34.352 9.496C34.496 9.53867 34.6133 9.584 34.704 9.632C34.8 9.68 34.8667 9.71467 34.904 9.736L34.6 10.56C34.44 10.464 34.24 10.384 34 10.32C33.7653 10.2507 33.5173 10.216 33.256 10.216ZM39.6289 14.128V15H36.1249V9.456H37.1329V14.128H39.6289Z" fill="black"/>
<line x1="35" y1="18.5" x2="125" y2="18.5" stroke="#374151"/>
<path d="M3.56 64.608C3.56 65.264 3.65867 65.88 3.856 66.456C4.05333 67.032 4.328 67.5573 4.68 68.032L4 68.48C3.568 67.9627 3.22667 67.376 2.976 66.72C2.72533 66.0587 2.6 65.3547 2.6 64.608C2.6 63.8613 2.72533 63.16 2.976 62.504C3.22667 61.8427 3.568 61.2533 4 60.736L4.68 61.184C4.328 61.664 4.05333 62.192 3.856 62.768C3.65867 63.3387 3.56 63.952 3.56 64.608ZM6.78294 67.08C6.49494 67.0747 6.25494 67.0427 6.06294 66.984C5.87627 66.9253 5.72694 66.8427 5.61494 66.736C5.50294 66.624 5.42294 66.488 5.37494 66.328C5.33227 66.1627 5.31094 65.976 5.31094 65.768V60.952L6.27894 60.792V65.584C6.27894 65.7013 6.28694 65.8 6.30294 65.88C6.32427 65.96 6.35894 66.0293 6.40694 66.088C6.45494 66.1413 6.51894 66.184 6.59894 66.216C6.68427 66.2427 6.79094 66.264 6.91894 66.28L6.78294 67.08ZM8.23794 64.608C8.23794 63.952 8.13927 63.3387 7.94194 62.768C7.7446 62.192 7.46994 61.664 7.11794 61.184L7.79794 60.736C8.22994 61.2533 8.57127 61.8427 8.82194 62.504C9.0726 63.16 9.19794 63.8613 9.19794 64.608C9.19794 65.3547 9.0726 66.0587 8.82194 66.72C8.57127 67.376 8.22994 67.9627 7.79794 68.48L7.11794 68.032C7.46994 67.5573 7.7446 67.032 7.94194 66.456C8.13927 65.88 8.23794 65.264 8.23794 64.608Z" fill="#1D4ED8"/>
<defs>
<linearGradient id="paint0_linear_49_3" x1="88" y1="58.5" x2="70" y2="58.5" gradientUnits="userSpaceOnUse">
<stop stop-color="#4B5563"/>
<stop offset="0.307679" stop-color="#9CA3AF"/>
<stop offset="0.5" stop-color="#6B7280"/>
<stop offset="1" stop-color="#4B5563"/>
</linearGradient>
</defs>
</svg>
