<svg width="125" height="114" viewBox="0 0 125 114" fill="none" xmlns="http://www.w3.org/2000/svg">
<g clip-path="url(#clip0_43_48)">
<path d="M60 8H78V106H60V8Z" fill="url(#paint0_linear_43_48)"/>
<path d="M77.5 8.5V105.5H60.5V8.5H77.5Z" stroke="white" stroke-opacity="0.01"/>
<g filter="url(#filter0_d_43_48)">
<rect x="40" y="106" width="60" height="5" fill="#B4BCC9"/>
</g>
<line x1="21" y1="111.5" x2="119" y2="111.5" stroke="#374151"/>
<path d="M23.256 103.216C22.6853 103.216 22.248 103.395 21.944 103.752C21.6453 104.104 21.496 104.595 21.496 105.224C21.496 105.523 21.5307 105.797 21.6 106.048C21.6747 106.293 21.7813 106.504 21.92 106.68C22.064 106.856 22.24 106.995 22.448 107.096C22.6613 107.192 22.9093 107.24 23.192 107.24C23.368 107.24 23.52 107.235 23.648 107.224C23.776 107.208 23.8773 107.189 23.952 107.168V105.176H24.96V107.84C24.8213 107.893 24.5867 107.952 24.256 108.016C23.9253 108.08 23.544 108.112 23.112 108.112C22.712 108.112 22.3467 108.048 22.016 107.92C21.6853 107.792 21.4027 107.605 21.168 107.36C20.9387 107.115 20.76 106.813 20.632 106.456C20.504 106.099 20.44 105.688 20.44 105.224C20.44 104.76 20.5093 104.349 20.648 103.992C20.792 103.635 20.9867 103.333 21.232 103.088C21.4773 102.837 21.7653 102.648 22.096 102.52C22.4267 102.392 22.7787 102.328 23.152 102.328C23.408 102.328 23.6347 102.347 23.832 102.384C24.0347 102.416 24.208 102.453 24.352 102.496C24.496 102.539 24.6133 102.584 24.704 102.632C24.8 102.68 24.8667 102.715 24.904 102.736L24.6 103.56C24.44 103.464 24.24 103.384 24 103.32C23.7653 103.251 23.5173 103.216 23.256 103.216ZM29.6289 107.128V108H26.1249V102.456H27.1329V107.128H29.6289Z" fill="black"/>
<path d="M8.56 108.608C8.56 109.264 8.65867 109.88 8.856 110.456C9.05333 111.032 9.328 111.557 9.68 112.032L9 112.48C8.568 111.963 8.22667 111.376 7.976 110.72C7.72533 110.059 7.6 109.355 7.6 108.608C7.6 107.861 7.72533 107.16 7.976 106.504C8.22667 105.843 8.568 105.253 9 104.736L9.68 105.184C9.328 105.664 9.05333 106.192 8.856 106.768C8.65867 107.339 8.56 107.952 8.56 108.608ZM10.3269 111V104.952L11.2949 104.792V106.864C11.4016 106.827 11.5243 106.795 11.6629 106.768C11.8069 106.741 11.9483 106.728 12.0869 106.728C12.4229 106.728 12.7003 106.776 12.9189 106.872C13.1429 106.963 13.3216 107.093 13.4549 107.264C13.5883 107.429 13.6816 107.629 13.7349 107.864C13.7936 108.099 13.8229 108.36 13.8229 108.648V111H12.8549V108.8C12.8549 108.576 12.8389 108.387 12.8069 108.232C12.7803 108.072 12.7323 107.944 12.6629 107.848C12.5989 107.747 12.5109 107.675 12.3989 107.632C12.2869 107.584 12.1483 107.56 11.9829 107.56C11.8549 107.56 11.7243 107.573 11.5909 107.6C11.4576 107.627 11.3589 107.651 11.2949 107.672V111H10.3269ZM15.3473 108.608C15.3473 107.952 15.2486 107.339 15.0513 106.768C14.854 106.192 14.5793 105.664 14.2273 105.184L14.9073 104.736C15.3393 105.253 15.6806 105.843 15.9313 106.504C16.182 107.16 16.3073 107.861 16.3073 108.608C16.3073 109.355 16.182 110.059 15.9313 110.72C15.6806 111.376 15.3393 111.963 14.9073 112.48L14.2273 112.032C14.5793 111.557 14.854 111.032 15.0513 110.456C15.2486 109.88 15.3473 109.264 15.3473 108.608Z" fill="#1D4ED8"/>
</g>
<defs>
<filter id="filter0_d_43_48" x="36" y="104" width="68" height="13" filterUnits="userSpaceOnUse" color-interpolation-filters="sRGB">
<feFlood flood-opacity="0" result="BackgroundImageFix"/>
<feColorMatrix in="SourceAlpha" type="matrix" values="0 0 0 0 0 0 0 0 0 0 0 0 0 0 0 0 0 0 127 0" result="hardAlpha"/>
<feOffset dy="2"/>
<feGaussianBlur stdDeviation="2"/>
<feComposite in2="hardAlpha" operator="out"/>
<feColorMatrix type="matrix" values="0 0 0 0 0 0 0 0 0 0 0 0 0 0 0 0 0 0 0.01 0"/>
<feBlend mode="normal" in2="BackgroundImageFix" result="effect1_dropShadow_43_48"/>
<feBlend mode="normal" in="SourceGraphic" in2="effect1_dropShadow_43_48" result="shape"/>
</filter>
<linearGradient id="paint0_linear_43_48" x1="78" y1="57" x2="60" y2="57" gradientUnits="userSpaceOnUse">
<stop stop-color="#4B5563"/>
<stop offset="0.307679" stop-color="#9CA3AF"/>
<stop offset="0.5" stop-color="#6B7280"/>
<stop offset="1" stop-color="#4B5563"/>
</linearGradient>
<clipPath id="clip0_43_48">
<rect width="125" height="114" fill="white"/>
</clipPath>
</defs>
</svg>
