<svg width="125" height="114" viewBox="0 0 125 114" fill="none" xmlns="http://www.w3.org/2000/svg">
<g clip-path="url(#clip0_43_48)">
<path d="M60 8H78V106H60V8Z" fill="url(#paint0_linear_43_48)"/>
<path d="M77.5 8.5V105.5H60.5V8.5H77.5Z" stroke="white" stroke-opacity="0.01"/>
<g filter="url(#filter0_d_43_48)">
<rect x="40" y="106" width="60" height="5" fill="#B4BCC9"/>
</g>
<line x1="21" y1="111.5" x2="119" y2="111.5" stroke="#374151"/>
<path d="M23.256 103.216C22.6853 103.216 22.248 103.395 21.944 103.752C21.6453 104.104 21.496 104.595 21.496 105.224C21.496 105.523 21.5307 105.797 21.6 106.048C21.6747 106.293 21.7813 106.504 21.92 106.68C22.064 106.856 22.24 106.995 22.448 107.096C22.6613 107.192 22.9093 107.24 23.192 107.24C23.368 107.24 23.52 107.235 23.648 107.224C23.776 107.208 23.8773 107.189 23.952 107.168V105.176H24.96V107.84C24.8213 107.893 24.5867 107.952 24.256 108.016C23.9253 108.08 23.544 108.112 23.112 108.112C22.712 108.112 22.3467 108.048 22.016 107.92C21.6853 107.792 21.4027 107.605 21.168 107.36C20.9387 107.115 20.76 106.813 20.632 106.456C20.504 106.099 20.44 105.688 20.44 105.224C20.44 104.76 20.5093 104.349 20.648 103.992C20.792 103.635 20.9867 103.333 21.232 103.088C21.4773 102.837 21.7653 102.648 22.096 102.52C22.4267 102.392 22.7787 102.328 23.152 102.328C23.408 102.328 23.6347 102.347 23.832 102.384C24.0347 102.416 24.208 102.453 24.352 102.496C24.496 102.539 24.6133 102.584 24.704 102.632C24.8 102.68 24.8667 102.715 24.904 102.736L24.6 103.56C24.44 103.464 24.24 103.384 24 103.32C23.7653 103.251 23.5173 103.216 23.256 103.216ZM29.6289 107.128V108H26.1249V102.456H27.1329V107.128H29.6289Z" fill="black"/>
<path d="M8.56 108.608C8.56 109.264 8.65867 109.88 8.856 110.456C9.05333 111.032 9.328 111.557 9.68 112.032L9 112.48C8.568 111.963 8.22667 111.376 7.976 110.72C7.72533 110.059 7.6 109.355 7.6 108.608C7.6 107.861 7.72533 107.16 7.976 106.504C8.22667 105.843 8.568 105.253 9 104.736L9.68 105.184C9.328 105.664 9.05333 106.192 8.856 106.768C8.65867 107.339 8.56 107.952 8.56 108.608ZM11.0869 108.896C11.0869 109.323 11.1883 109.659 11.3909 109.904C11.5936 110.144 11.8736 110.264 12.2309 110.264C12.3856 110.264 12.5163 110.259 12.6229 110.248C12.7349 110.232 12.8256 110.216 12.8949 110.2V107.8C12.8096 107.741 12.6949 107.688 12.5509 107.64C12.4123 107.587 12.2629 107.56 12.1029 107.56C11.7509 107.56 11.4923 107.68 11.3269 107.92C11.1669 108.16 11.0869 108.485 11.0869 108.896ZM13.8629 110.872C13.6709 110.931 13.4283 110.984 13.1349 111.032C12.8469 111.08 12.5429 111.104 12.2229 111.104C11.8923 111.104 11.5963 111.053 11.3349 110.952C11.0736 110.851 10.8496 110.707 10.6629 110.52C10.4816 110.328 10.3403 110.099 10.2389 109.832C10.1429 109.56 10.0949 109.256 10.0949 108.92C10.0949 108.589 10.1349 108.291 10.2149 108.024C10.3003 107.752 10.4229 107.52 10.5829 107.328C10.7429 107.136 10.9376 106.989 11.1669 106.888C11.3963 106.781 11.6603 106.728 11.9589 106.728C12.1616 106.728 12.3403 106.752 12.4949 106.8C12.6496 106.848 12.7829 106.901 12.8949 106.96V104.952L13.8629 104.792V110.872ZM15.6286 108.608C15.6286 107.952 15.5299 107.339 15.3326 106.768C15.1352 106.192 14.8606 105.664 14.5086 105.184L15.1886 104.736C15.6206 105.253 15.9619 105.843 16.2126 106.504C16.4632 107.16 16.5886 107.861 16.5886 108.608C16.5886 109.355 16.4632 110.059 16.2126 110.72C15.9619 111.376 15.6206 111.963 15.1886 112.48L14.5086 112.032C14.8606 111.557 15.1352 111.032 15.3326 110.456C15.5299 109.88 15.6286 109.264 15.6286 108.608Z" fill="#1D4ED8"/>
</g>
<defs>
<filter id="filter0_d_43_48" x="36" y="104" width="68" height="13" filterUnits="userSpaceOnUse" color-interpolation-filters="sRGB">
<feFlood flood-opacity="0" result="BackgroundImageFix"/>
<feColorMatrix in="SourceAlpha" type="matrix" values="0 0 0 0 0 0 0 0 0 0 0 0 0 0 0 0 0 0 127 0" result="hardAlpha"/>
<feOffset dy="2"/>
<feGaussianBlur stdDeviation="2"/>
<feComposite in2="hardAlpha" operator="out"/>
<feColorMatrix type="matrix" values="0 0 0 0 0 0 0 0 0 0 0 0 0 0 0 0 0 0 0.01 0"/>
<feBlend mode="normal" in2="BackgroundImageFix" result="effect1_dropShadow_43_48"/>
<feBlend mode="normal" in="SourceGraphic" in2="effect1_dropShadow_43_48" result="shape"/>
</filter>
<linearGradient id="paint0_linear_43_48" x1="78" y1="57" x2="60" y2="57" gradientUnits="userSpaceOnUse">
<stop stop-color="#4B5563"/>
<stop offset="0.307679" stop-color="#9CA3AF"/>
<stop offset="0.5" stop-color="#6B7280"/>
<stop offset="1" stop-color="#4B5563"/>
</linearGradient>
<clipPath id="clip0_43_48">
<rect width="125" height="114" fill="white"/>
</clipPath>
</defs>
</svg>
