<svg width="125" height="114" viewBox="0 0 125 114" fill="none" xmlns="http://www.w3.org/2000/svg">
<g clip-path="url(#clip0_42_20)">
<path d="M70 7H88V105H70V7Z" fill="url(#paint0_linear_42_20)"/>
<path d="M87.5 7.5V104.5H70.5V7.5H87.5Z" stroke="white" stroke-opacity="0.01"/>
<line x1="32" y1="81.5" x2="17" y2="81.5" stroke="#1D4ED8"/>
<line x1="17.5" y1="82" x2="17.5" y2="110" stroke="#1D4ED8"/>
<path d="M48.3536 110.354C48.5488 110.158 48.5488 109.842 48.3536 109.646L45.1716 106.464C44.9763 106.269 44.6597 106.269 44.4645 106.464C44.2692 106.66 44.2692 106.976 44.4645 107.172L47.2929 110L44.4645 112.828C44.2692 113.024 44.2692 113.34 44.4645 113.536C44.6597 113.731 44.9763 113.731 45.1716 113.536L48.3536 110.354ZM17 110V110.5L48 110.5V110V109.5L17 109.5V110Z" fill="#1D4ED8"/>
<path d="M33.256 73.216C32.6853 73.216 32.248 73.3947 31.944 73.752C31.6453 74.104 31.496 74.5947 31.496 75.224C31.496 75.5227 31.5307 75.7973 31.6 76.048C31.6747 76.2933 31.7813 76.504 31.92 76.68C32.064 76.856 32.24 76.9947 32.448 77.096C32.6613 77.192 32.9093 77.24 33.192 77.24C33.368 77.24 33.52 77.2347 33.648 77.224C33.776 77.208 33.8773 77.1893 33.952 77.168V75.176H34.96V77.84C34.8213 77.8933 34.5867 77.952 34.256 78.016C33.9253 78.08 33.544 78.112 33.112 78.112C32.712 78.112 32.3467 78.048 32.016 77.92C31.6853 77.792 31.4027 77.6053 31.168 77.36C30.9387 77.1147 30.76 76.8133 30.632 76.456C30.504 76.0987 30.44 75.688 30.44 75.224C30.44 74.76 30.5093 74.3493 30.648 73.992C30.792 73.6347 30.9867 73.3333 31.232 73.088C31.4773 72.8373 31.7653 72.648 32.096 72.52C32.4267 72.392 32.7787 72.328 33.152 72.328C33.408 72.328 33.6347 72.3467 33.832 72.384C34.0347 72.416 34.208 72.4533 34.352 72.496C34.496 72.5387 34.6133 72.584 34.704 72.632C34.8 72.68 34.8667 72.7147 34.904 72.736L34.6 73.56C34.44 73.464 34.24 73.384 34 73.32C33.7653 73.2507 33.5173 73.216 33.256 73.216ZM39.6289 77.128V78H36.1249V72.456H37.1329V77.128H39.6289Z" fill="black"/>
<line x1="35" y1="81.5" x2="125" y2="81.5" stroke="#374151"/>
<g filter="url(#filter0_d_42_20)">
<rect x="49" y="105" width="60" height="5" fill="#B4BCC9"/>
</g>
<path d="M3.56 96.608C3.56 97.264 3.65867 97.88 3.856 98.456C4.05333 99.032 4.328 99.5573 4.68 100.032L4 100.48C3.568 99.9627 3.22667 99.376 2.976 98.72C2.72533 98.0587 2.6 97.3547 2.6 96.608C2.6 95.8613 2.72533 95.16 2.976 94.504C3.22667 93.8427 3.568 93.2533 4 92.736L4.68 93.184C4.328 93.664 4.05333 94.192 3.856 94.768C3.65867 95.3387 3.56 95.952 3.56 96.608ZM5.32694 99V92.952L6.29494 92.792V94.864C6.4016 94.8267 6.52427 94.7947 6.66294 94.768C6.80694 94.7413 6.94827 94.728 7.08694 94.728C7.42294 94.728 7.70027 94.776 7.91894 94.872C8.14294 94.9627 8.3216 95.0933 8.45494 95.264C8.58827 95.4293 8.6816 95.6293 8.73494 95.864C8.7936 96.0987 8.82294 96.36 8.82294 96.648V99H7.85494V96.8C7.85494 96.576 7.83894 96.3867 7.80694 96.232C7.78027 96.072 7.73227 95.944 7.66294 95.848C7.59894 95.7467 7.51094 95.6747 7.39894 95.632C7.28694 95.584 7.14827 95.56 6.98294 95.56C6.85494 95.56 6.72427 95.5733 6.59094 95.6C6.4576 95.6267 6.35894 95.6507 6.29494 95.672V99H5.32694ZM10.3473 96.608C10.3473 95.952 10.2486 95.3387 10.0513 94.768C9.85398 94.192 9.57931 93.664 9.22731 93.184L9.90731 92.736C10.3393 93.2533 10.6806 93.8427 10.9313 94.504C11.182 95.16 11.3073 95.8613 11.3073 96.608C11.3073 97.3547 11.182 98.0587 10.9313 98.72C10.6806 99.376 10.3393 99.9627 9.90731 100.48L9.22731 100.032C9.57931 99.5573 9.85398 99.032 10.0513 98.456C10.2486 97.88 10.3473 97.264 10.3473 96.608Z" fill="#1D4ED8"/>
</g>
<defs>
<filter id="filter0_d_42_20" x="45" y="103" width="68" height="13" filterUnits="userSpaceOnUse" color-interpolation-filters="sRGB">
<feFlood flood-opacity="0" result="BackgroundImageFix"/>
<feColorMatrix in="SourceAlpha" type="matrix" values="0 0 0 0 0 0 0 0 0 0 0 0 0 0 0 0 0 0 127 0" result="hardAlpha"/>
<feOffset dy="2"/>
<feGaussianBlur stdDeviation="2"/>
<feComposite in2="hardAlpha" operator="out"/>
<feColorMatrix type="matrix" values="0 0 0 0 0 0 0 0 0 0 0 0 0 0 0 0 0 0 0.01 0"/>
<feBlend mode="normal" in2="BackgroundImageFix" result="effect1_dropShadow_42_20"/>
<feBlend mode="normal" in="SourceGraphic" in2="effect1_dropShadow_42_20" result="shape"/>
</filter>
<linearGradient id="paint0_linear_42_20" x1="88" y1="56" x2="70" y2="56" gradientUnits="userSpaceOnUse">
<stop stop-color="#4B5563"/>
<stop offset="0.307679" stop-color="#9CA3AF"/>
<stop offset="0.5" stop-color="#6B7280"/>
<stop offset="1" stop-color="#4B5563"/>
</linearGradient>
<clipPath id="clip0_42_20">
<rect width="125" height="114" fill="white"/>
</clipPath>
</defs>
</svg>
