<svg width="125" height="114" viewBox="0 0 125 114" fill="none" xmlns="http://www.w3.org/2000/svg">
<g clip-path="url(#clip0_42_20)">
<path d="M70 7H88V105H70V7Z" fill="url(#paint0_linear_42_20)"/>
<path d="M87.5 7.5V104.5H70.5V7.5H87.5Z" stroke="white" stroke-opacity="0.01"/>
<line x1="32" y1="81.5" x2="17" y2="81.5" stroke="#1D4ED8"/>
<line x1="17.5" y1="82" x2="17.5" y2="110" stroke="#1D4ED8"/>
<path d="M48.3536 110.354C48.5488 110.158 48.5488 109.842 48.3536 109.646L45.1716 106.464C44.9763 106.269 44.6597 106.269 44.4645 106.464C44.2692 106.66 44.2692 106.976 44.4645 107.172L47.2929 110L44.4645 112.828C44.2692 113.024 44.2692 113.34 44.4645 113.536C44.6597 113.731 44.9763 113.731 45.1716 113.536L48.3536 110.354ZM17 110V110.5L48 110.5V110V109.5L17 109.5V110Z" fill="#1D4ED8"/>
<path d="M33.256 73.216C32.6853 73.216 32.248 73.3947 31.944 73.752C31.6453 74.104 31.496 74.5947 31.496 75.224C31.496 75.5227 31.5307 75.7973 31.6 76.048C31.6747 76.2933 31.7813 76.504 31.92 76.68C32.064 76.856 32.24 76.9947 32.448 77.096C32.6613 77.192 32.9093 77.24 33.192 77.24C33.368 77.24 33.52 77.2347 33.648 77.224C33.776 77.208 33.8773 77.1893 33.952 77.168V75.176H34.96V77.84C34.8213 77.8933 34.5867 77.952 34.256 78.016C33.9253 78.08 33.544 78.112 33.112 78.112C32.712 78.112 32.3467 78.048 32.016 77.92C31.6853 77.792 31.4027 77.6053 31.168 77.36C30.9387 77.1147 30.76 76.8133 30.632 76.456C30.504 76.0987 30.44 75.688 30.44 75.224C30.44 74.76 30.5093 74.3493 30.648 73.992C30.792 73.6347 30.9867 73.3333 31.232 73.088C31.4773 72.8373 31.7653 72.648 32.096 72.52C32.4267 72.392 32.7787 72.328 33.152 72.328C33.408 72.328 33.6347 72.3467 33.832 72.384C34.0347 72.416 34.208 72.4533 34.352 72.496C34.496 72.5387 34.6133 72.584 34.704 72.632C34.8 72.68 34.8667 72.7147 34.904 72.736L34.6 73.56C34.44 73.464 34.24 73.384 34 73.32C33.7653 73.2507 33.5173 73.216 33.256 73.216ZM39.6289 77.128V78H36.1249V72.456H37.1329V77.128H39.6289Z" fill="black"/>
<line x1="35" y1="81.5" x2="125" y2="81.5" stroke="#374151"/>
<g filter="url(#filter0_d_42_20)">
<rect x="49" y="105" width="60" height="5" fill="#B4BCC9"/>
</g>
<path d="M3.56 96.608C3.56 97.264 3.65867 97.88 3.856 98.456C4.05333 99.032 4.328 99.5573 4.68 100.032L4 100.48C3.568 99.9627 3.22667 99.376 2.976 98.72C2.72533 98.0587 2.6 97.3547 2.6 96.608C2.6 95.8613 2.72533 95.16 2.976 94.504C3.22667 93.8427 3.568 93.2533 4 92.736L4.68 93.184C4.328 93.664 4.05333 94.192 3.856 94.768C3.65867 95.3387 3.56 95.952 3.56 96.608ZM6.08694 96.896C6.08694 97.3227 6.18827 97.6587 6.39094 97.904C6.5936 98.144 6.8736 98.264 7.23094 98.264C7.3856 98.264 7.51627 98.2587 7.62294 98.248C7.73494 98.232 7.8256 98.216 7.89494 98.2V95.8C7.8096 95.7413 7.69494 95.688 7.55094 95.64C7.41227 95.5867 7.26294 95.56 7.10294 95.56C6.75094 95.56 6.49227 95.68 6.32694 95.92C6.16694 96.16 6.08694 96.4853 6.08694 96.896ZM8.86294 98.872C8.67094 98.9307 8.42827 98.984 8.13494 99.032C7.84694 99.08 7.54294 99.104 7.22294 99.104C6.89227 99.104 6.59627 99.0533 6.33494 98.952C6.0736 98.8507 5.8496 98.7067 5.66294 98.52C5.4816 98.328 5.34027 98.0987 5.23894 97.832C5.14294 97.56 5.09494 97.256 5.09494 96.92C5.09494 96.5893 5.13494 96.2907 5.21494 96.024C5.30027 95.752 5.42294 95.52 5.58294 95.328C5.74294 95.136 5.9376 94.9893 6.16694 94.888C6.39627 94.7813 6.66027 94.728 6.95894 94.728C7.1616 94.728 7.34027 94.752 7.49494 94.8C7.6496 94.848 7.78294 94.9013 7.89494 94.96V92.952L8.86294 92.792V98.872ZM10.6286 96.608C10.6286 95.952 10.5299 95.3387 10.3326 94.768C10.1352 94.192 9.86056 93.664 9.50856 93.184L10.1886 92.736C10.6206 93.2533 10.9619 93.8427 11.2126 94.504C11.4632 95.16 11.5886 95.8613 11.5886 96.608C11.5886 97.3547 11.4632 98.0587 11.2126 98.72C10.9619 99.376 10.6206 99.9627 10.1886 100.48L9.50856 100.032C9.86056 99.5573 10.1352 99.032 10.3326 98.456C10.5299 97.88 10.6286 97.264 10.6286 96.608Z" fill="#1D4ED8"/>
</g>
<defs>
<filter id="filter0_d_42_20" x="45" y="103" width="68" height="13" filterUnits="userSpaceOnUse" color-interpolation-filters="sRGB">
<feFlood flood-opacity="0" result="BackgroundImageFix"/>
<feColorMatrix in="SourceAlpha" type="matrix" values="0 0 0 0 0 0 0 0 0 0 0 0 0 0 0 0 0 0 127 0" result="hardAlpha"/>
<feOffset dy="2"/>
<feGaussianBlur stdDeviation="2"/>
<feComposite in2="hardAlpha" operator="out"/>
<feColorMatrix type="matrix" values="0 0 0 0 0 0 0 0 0 0 0 0 0 0 0 0 0 0 0.01 0"/>
<feBlend mode="normal" in2="BackgroundImageFix" result="effect1_dropShadow_42_20"/>
<feBlend mode="normal" in="SourceGraphic" in2="effect1_dropShadow_42_20" result="shape"/>
</filter>
<linearGradient id="paint0_linear_42_20" x1="88" y1="56" x2="70" y2="56" gradientUnits="userSpaceOnUse">
<stop stop-color="#4B5563"/>
<stop offset="0.307679" stop-color="#9CA3AF"/>
<stop offset="0.5" stop-color="#6B7280"/>
<stop offset="1" stop-color="#4B5563"/>
</linearGradient>
<clipPath id="clip0_42_20">
<rect width="125" height="114" fill="white"/>
</clipPath>
</defs>
</svg>
